# WaveFront *.obj file (generated by Autodesk ATF)

mtllib 7cc1a70e-1310-4707-be4e-881c53617827.mtl

g Body1

v 0.000000 20.000000 0.000000
v 0.000000 0.000000 0.000000
v 0.000000 0.000000 20.000000
v 0.000000 20.000000 20.000000
v 44.993076 -14.994615 0.000000
v 44.993076 -14.994615 20.000000
v -0.000000 -49.989230 0.000000
v -0.000000 -49.989230 20.000000
v -0.000000 -29.989230 0.000000
v -0.000000 -29.989230 20.000000
v -0.000000 -186.010770 0.000000
v -12.840149 -184.946802 0.000000
v -25.330052 -181.783927 0.000000
v -37.129016 -176.608419 0.000000
v -47.915198 -169.561453 0.000000
v -57.394378 -160.835251 0.000000
v -65.307989 -150.667842 0.000000
v -71.440168 -139.336566 0.000000
v -75.623646 -127.150509 0.000000
v -77.744308 -114.442077 0.000000
v -77.744308 -101.557922 0.000000
v -75.623646 -88.849491 0.000000
v -71.440168 -76.663434 0.000000
v -65.307989 -65.332158 0.000000
v -57.394378 -55.164749 0.000000
v -47.915198 -46.438547 0.000000
v -37.129016 -39.391581 0.000000
v -25.330052 -34.216073 0.000000
v -12.840149 -31.053198 0.000000
v -12.840149 -31.053198 20.000000
v -25.330052 -34.216073 20.000000
v -37.129016 -39.391581 20.000000
v -47.915198 -46.438547 20.000000
v -57.394378 -55.164749 20.000000
v -65.307989 -65.332158 20.000000
v -71.440168 -76.663434 20.000000
v -75.623646 -88.849491 20.000000
v -77.744308 -101.557922 20.000000
v -77.744308 -114.442077 20.000000
v -75.623646 -127.150509 20.000000
v -71.440168 -139.336566 20.000000
v -65.307989 -150.667842 20.000000
v -57.394378 -160.835251 20.000000
v -47.915198 -169.561453 20.000000
v -37.129016 -176.608419 20.000000
v -25.330052 -181.783927 20.000000
v -12.840149 -184.946802 20.000000
v -0.000000 -186.010770 20.000000
v -0.000000 -216.000000 0.000000
v -0.000000 -216.000000 20.000000
v -15.370001 -1.099286 0.000000
v -30.427113 -4.374763 0.000000
v -44.864816 -9.759749 0.000000
v -58.389201 -17.144624 0.000000
v -70.724950 -26.379052 0.000000
v -81.620943 -37.275046 0.000000
v -90.855369 -49.610797 0.000000
v -98.240241 -63.135183 0.000000
v -103.625226 -77.572887 0.000000
v -106.900700 -92.629999 0.000000
v -107.999984 -108.000000 0.000000
v -106.900700 -123.370001 0.000000
v -103.625226 -138.427113 0.000000
v -98.240241 -152.864817 0.000000
v -90.855369 -166.389203 0.000000
v -81.620943 -178.724954 0.000000
v -70.724950 -189.620948 0.000000
v -58.389201 -198.855376 0.000000
v -44.864816 -206.240251 0.000000
v -30.427113 -211.625237 0.000000
v -15.370001 -214.900714 0.000000
v -15.370001 -214.900714 20.000000
v -30.427113 -211.625237 20.000000
v -44.864816 -206.240251 20.000000
v -58.389201 -198.855376 20.000000
v -70.724950 -189.620948 20.000000
v -81.620943 -178.724954 20.000000
v -90.855369 -166.389203 20.000000
v -98.240241 -152.864817 20.000000
v -103.625226 -138.427113 20.000000
v -106.900700 -123.370001 20.000000
v -107.999984 -108.000000 20.000000
v -106.900700 -92.629999 20.000000
v -103.625226 -77.572887 20.000000
v -98.240241 -63.135183 20.000000
v -90.855369 -49.610797 20.000000
v -81.620943 -37.275046 20.000000
v -70.724950 -26.379052 20.000000
v -58.389201 -17.144624 20.000000
v -44.864816 -9.759749 20.000000
v -30.427113 -4.374763 20.000000
v -15.370001 -1.099286 20.000000
vt -0.000000 0.000000 0.000000
vt 2.000000 0.000000 0.000000
vt -0.000000 2.000000 0.000000
vt 2.000000 2.000000 0.000000
vt -0.000000 0.000000 0.000000
vt 5.700000 0.000000 0.000000
vt -0.000000 2.000000 0.000000
vt 5.700000 2.000000 0.000000
vt 0.000000 0.000000 0.000000
vt 5.700000 0.000000 0.000000
vt 0.000000 2.000000 0.000000
vt 5.700000 2.000000 0.000000
vt -0.000000 0.000000 0.000000
vt 2.000000 0.000000 0.000000
vt -0.000000 2.000000 0.000000
vt 2.000000 2.000000 0.000000
vt 2.000000 24.507806 0.000000
vt 0.000000 24.507806 0.000000
vt 2.000000 23.217919 0.000000
vt -0.000000 23.217919 0.000000
vt 2.000000 21.928034 0.000000
vt -0.000000 21.928034 0.000000
vt 2.000000 20.638150 0.000000
vt 0.000000 20.638150 0.000000
vt 2.000000 19.348266 0.000000
vt 0.000000 19.348266 0.000000
vt 2.000000 18.058381 0.000000
vt -0.000000 18.058381 0.000000
vt 2.000000 16.768497 0.000000
vt -0.000000 16.768497 0.000000
vt 2.000000 15.478612 0.000000
vt -0.000000 15.478612 0.000000
vt 2.000000 14.188728 0.000000
vt -0.000000 14.188728 0.000000
vt 2.000000 12.898844 0.000000
vt 0.000000 12.898844 0.000000
vt 2.000000 11.608959 0.000000
vt -0.000000 11.608959 0.000000
vt 2.000000 10.319075 0.000000
vt -0.000000 10.319075 0.000000
vt 2.000000 9.029191 0.000000
vt -0.000000 9.029191 0.000000
vt 2.000000 7.739306 0.000000
vt -0.000000 7.739306 0.000000
vt 2.000000 6.449422 0.000000
vt -0.000000 6.449422 0.000000
vt 2.000000 5.159537 0.000000
vt -0.000000 5.159537 0.000000
vt 2.000000 3.869653 0.000000
vt 0.000000 3.869653 0.000000
vt 2.000000 2.579769 0.000000
vt 0.000000 2.579769 0.000000
vt 2.000000 1.289884 0.000000
vt 0.000000 1.289884 0.000000
vt 2.000000 0.000000 0.000000
vt -0.000000 0.000000 0.000000
vt 0.000000 0.000000 0.000000
vt 2.998923 0.000000 0.000000
vt 0.000000 2.000000 0.000000
vt 2.998923 2.000000 0.000000
vt -2.000000 0.000000 0.000000
vt -0.000000 0.000000 0.000000
vt -2.000000 1.542236 0.000000
vt -0.000000 1.542236 0.000000
vt -2.000000 3.084472 0.000000
vt -0.000000 3.084472 0.000000
vt -2.000000 4.626709 0.000000
vt -0.000000 4.626709 0.000000
vt -2.000000 6.168945 0.000000
vt -0.000000 6.168945 0.000000
vt -2.000000 7.711181 0.000000
vt -0.000000 7.711181 0.000000
vt -2.000000 9.253417 0.000000
vt -0.000000 9.253417 0.000000
vt -2.000000 10.795654 0.000000
vt -0.000000 10.795654 0.000000
vt -2.000000 12.337890 0.000000
vt -0.000000 12.337890 0.000000
vt -2.000000 13.880126 0.000000
vt -0.000000 13.880126 0.000000
vt -2.000000 15.422362 0.000000
vt -0.000000 15.422362 0.000000
vt -2.000000 16.964599 0.000000
vt -0.000000 16.964599 0.000000
vt -2.000000 18.506835 0.000000
vt -0.000000 18.506835 0.000000
vt -2.000000 20.049071 0.000000
vt -0.000000 20.049071 0.000000
vt -2.000000 21.591307 0.000000
vt -0.000000 21.591307 0.000000
vt -2.000000 23.133544 0.000000
vt -0.000000 23.133544 0.000000
vt -2.000000 24.675780 0.000000
vt -0.000000 24.675780 0.000000
vt -2.000000 26.218016 0.000000
vt -0.000000 26.218016 0.000000
vt -2.000000 27.760252 0.000000
vt -0.000000 27.760252 0.000000
vt -2.000000 29.302489 0.000000
vt -0.000000 29.302489 0.000000
vt -2.000000 30.844725 0.000000
vt -0.000000 30.844725 0.000000
vt -2.000000 32.386961 0.000000
vt -0.000000 32.386961 0.000000
vt -2.000000 33.929201 0.000000
vt -0.000000 33.929201 0.000000
vt 1.613345 9.690071 0.000000
vt 1.866330 6.694680 0.000000
vt 3.150345 9.800000 0.000000
vt 3.150345 6.801077 0.000000
vt 7.649653 8.300539 0.000000
vt 3.150345 4.801077 0.000000
vt 0.617340 6.378393 0.000000
vt 0.107634 9.362524 0.000000
vt -0.562556 5.860842 0.000000
vt -1.336136 8.824025 0.000000
vt -1.641174 5.156145 0.000000
vt -2.688575 8.085538 0.000000
vt -2.589092 4.283525 0.000000
vt -3.922150 7.162095 0.000000
vt -3.380454 3.266784 0.000000
vt -5.011749 6.072495 0.000000
vt -5.935191 4.838920 0.000000
vt -3.993671 2.133657 0.000000
vt -6.673679 3.486482 0.000000
vt -4.412019 0.915051 0.000000
vt -7.212177 2.042711 0.000000
vt -4.624085 -0.355792 0.000000
vt -7.539725 0.537000 0.000000
vt -7.649653 -1.000000 0.000000
vt -4.624085 -1.644208 0.000000
vt -7.539725 -2.537000 0.000000
vt -7.212177 -4.042711 0.000000
vt -4.412019 -2.915051 0.000000
vt -6.673679 -5.486482 0.000000
vt -3.993671 -4.133657 0.000000
vt -5.935191 -6.838920 0.000000
vt -3.380454 -5.266784 0.000000
vt -5.011749 -8.072495 0.000000
vt -3.922150 -9.162095 0.000000
vt -2.589092 -6.283525 0.000000
vt -2.688575 -10.085538 0.000000
vt -1.641174 -7.156145 0.000000
vt -1.336136 -10.824025 0.000000
vt -0.562556 -7.860842 0.000000
vt 0.107634 -11.362524 0.000000
vt 0.617340 -8.378393 0.000000
vt 1.613345 -11.690071 0.000000
vt 1.866330 -8.694680 0.000000
vt 3.150345 -11.800000 0.000000
vt 3.150345 -8.801077 0.000000
vt 3.150345 11.800000 0.000000
vt -3.150345 -8.801077 0.000000
vt -3.150345 -11.800000 0.000000
vt -1.866330 -8.694680 0.000000
vt -1.613345 -11.690071 0.000000
vt -0.617340 -8.378393 0.000000
vt -0.107634 -11.362524 0.000000
vt 0.562556 -7.860842 0.000000
vt 1.336136 -10.824025 0.000000
vt 1.641174 -7.156145 0.000000
vt 2.688575 -10.085538 0.000000
vt 2.589092 -6.283525 0.000000
vt 3.922150 -9.162095 0.000000
vt 3.380454 -5.266784 0.000000
vt 5.011749 -8.072495 0.000000
vt 5.935191 -6.838920 0.000000
vt 3.993671 -4.133657 0.000000
vt 6.673679 -5.486482 0.000000
vt 4.412019 -2.915051 0.000000
vt 7.212177 -4.042711 0.000000
vt 4.624085 -1.644208 0.000000
vt 7.539725 -2.537000 0.000000
vt 7.649653 -1.000000 0.000000
vt 4.624085 -0.355792 0.000000
vt 7.539725 0.537000 0.000000
vt 7.212177 2.042711 0.000000
vt 4.412019 0.915051 0.000000
vt 6.673679 3.486482 0.000000
vt 3.993671 2.133657 0.000000
vt 5.935191 4.838920 0.000000
vt 3.380454 3.266784 0.000000
vt 5.011749 6.072495 0.000000
vt 3.922150 7.162095 0.000000
vt 2.589092 4.283525 0.000000
vt 2.688575 8.085538 0.000000
vt 1.641174 5.156145 0.000000
vt 1.336136 8.824025 0.000000
vt 0.562556 5.860842 0.000000
vt -0.107634 9.362524 0.000000
vt -0.617340 6.378393 0.000000
vt -1.613345 9.690071 0.000000
vt -1.866330 6.694680 0.000000
vt -3.150345 9.800000 0.000000
vt -3.150345 6.801077 0.000000
vt -7.649653 8.300539 0.000000
vt -3.150345 4.801077 0.000000
vt -3.150345 11.800000 0.000000
vn -0.100000 0.000000 0.000000
vn -0.100000 0.000000 0.000000
vn -0.100000 0.000000 0.000000
vn -0.100000 0.000000 0.000000
vn 0.061394 0.078935 0.000000
vn 0.061394 0.078935 0.000000
vn 0.061394 0.078935 0.000000
vn 0.061394 0.078935 0.000000
vn 0.061394 -0.078935 0.000000
vn 0.061394 -0.078935 0.000000
vn 0.061394 -0.078935 0.000000
vn 0.061394 -0.078935 0.000000
vn -0.100000 -0.000000 0.000000
vn -0.100000 -0.000000 0.000000
vn -0.100000 -0.000000 0.000000
vn -0.100000 -0.000000 0.000000
vn -0.000000 0.100000 0.000000
vn -0.000000 0.100000 0.000000
vn 0.016459 0.098636 0.000000
vn 0.016459 0.098636 0.000000
vn 0.032470 0.094582 0.000000
vn 0.032470 0.094582 0.000000
vn 0.047595 0.087947 0.000000
vn 0.047595 0.087947 0.000000
vn 0.061421 0.078914 0.000000
vn 0.061421 0.078914 0.000000
vn 0.073572 0.067728 0.000000
vn 0.073572 0.067728 0.000000
vn 0.083717 0.054695 0.000000
vn 0.083717 0.054695 0.000000
vn 0.091577 0.040170 0.000000
vn 0.091577 0.040170 0.000000
vn 0.096940 0.024549 0.000000
vn 0.096940 0.024549 0.000000
vn 0.099658 0.008258 0.000000
vn 0.099658 0.008258 0.000000
vn 0.099658 -0.008258 0.000000
vn 0.099658 -0.008258 0.000000
vn 0.096940 -0.024549 0.000000
vn 0.096940 -0.024549 0.000000
vn 0.091577 -0.040170 0.000000
vn 0.091577 -0.040170 0.000000
vn 0.083717 -0.054695 0.000000
vn 0.083717 -0.054695 0.000000
vn 0.073572 -0.067728 0.000000
vn 0.073572 -0.067728 0.000000
vn 0.061421 -0.078914 0.000000
vn 0.061421 -0.078914 0.000000
vn 0.047595 -0.087947 0.000000
vn 0.047595 -0.087947 0.000000
vn 0.032470 -0.094582 0.000000
vn 0.032470 -0.094582 0.000000
vn 0.016459 -0.098636 0.000000
vn 0.016459 -0.098636 0.000000
vn 0.000000 -0.100000 0.000000
vn 0.000000 -0.100000 0.000000
vn 0.100000 0.000000 0.000000
vn 0.100000 0.000000 0.000000
vn 0.100000 0.000000 0.000000
vn 0.100000 0.000000 0.000000
vn -0.000000 0.100000 -0.000000
vn -0.000000 0.100000 -0.000000
vn -0.014231 0.098982 -0.000000
vn -0.014231 0.098982 -0.000000
vn -0.028173 0.095949 -0.000000
vn -0.028173 0.095949 -0.000000
vn -0.041542 0.090963 -0.000000
vn -0.041542 0.090963 -0.000000
vn -0.054064 0.084125 -0.000000
vn -0.054064 0.084125 -0.000000
vn -0.065486 0.075575 -0.000000
vn -0.065486 0.075575 -0.000000
vn -0.075575 0.065486 -0.000000
vn -0.075575 0.065486 -0.000000
vn -0.084125 0.054064 -0.000000
vn -0.084125 0.054064 -0.000000
vn -0.090963 0.041541 -0.000000
vn -0.090963 0.041541 -0.000000
vn -0.095949 0.028173 -0.000000
vn -0.095949 0.028173 -0.000000
vn -0.098982 0.014231 -0.000000
vn -0.098982 0.014231 -0.000000
vn -0.100000 0.000000 -0.000000
vn -0.100000 0.000000 -0.000000
vn -0.098982 -0.014231 0.000000
vn -0.098982 -0.014231 0.000000
vn -0.095949 -0.028173 0.000000
vn -0.095949 -0.028173 0.000000
vn -0.090963 -0.041541 0.000000
vn -0.090963 -0.041541 0.000000
vn -0.084125 -0.054064 0.000000
vn -0.084125 -0.054064 0.000000
vn -0.075575 -0.065486 0.000000
vn -0.075575 -0.065486 0.000000
vn -0.065486 -0.075575 0.000000
vn -0.065486 -0.075575 0.000000
vn -0.054064 -0.084125 0.000000
vn -0.054064 -0.084125 0.000000
vn -0.041542 -0.090963 0.000000
vn -0.041542 -0.090963 0.000000
vn -0.028173 -0.095949 0.000000
vn -0.028173 -0.095949 0.000000
vn -0.014231 -0.098982 0.000000
vn -0.014231 -0.098982 0.000000
vn 0.000000 -0.100000 0.000000
vn 0.000000 -0.100000 0.000000
vn 0.000000 0.000000 0.100000
vn 0.000000 0.000000 0.100000
vn 0.000000 0.000000 0.100000
vn 0.000000 0.000000 0.100000
vn 0.000000 0.000000 0.100000
vn 0.000000 0.000000 0.100000
vn 0.000000 0.000000 0.100000
vn 0.000000 0.000000 0.100000
vn 0.000000 0.000000 0.100000
vn 0.000000 0.000000 0.100000
vn 0.000000 0.000000 0.100000
vn 0.000000 0.000000 0.100000
vn 0.000000 0.000000 0.100000
vn 0.000000 0.000000 0.100000
vn 0.000000 0.000000 0.100000
vn 0.000000 0.000000 0.100000
vn 0.000000 0.000000 0.100000
vn 0.000000 0.000000 0.100000
vn 0.000000 0.000000 0.100000
vn 0.000000 0.000000 0.100000
vn 0.000000 0.000000 0.100000
vn 0.000000 0.000000 0.100000
vn 0.000000 0.000000 0.100000
vn 0.000000 0.000000 0.100000
vn 0.000000 0.000000 0.100000
vn 0.000000 0.000000 0.100000
vn 0.000000 0.000000 0.100000
vn 0.000000 0.000000 0.100000
vn 0.000000 0.000000 0.100000
vn 0.000000 0.000000 0.100000
vn 0.000000 0.000000 0.100000
vn 0.000000 0.000000 0.100000
vn 0.000000 0.000000 0.100000
vn 0.000000 0.000000 0.100000
vn 0.000000 0.000000 0.100000
vn 0.000000 0.000000 0.100000
vn 0.000000 0.000000 0.100000
vn 0.000000 0.000000 0.100000
vn 0.000000 0.000000 0.100000
vn 0.000000 0.000000 0.100000
vn 0.000000 0.000000 0.100000
vn 0.000000 0.000000 0.100000
vn 0.000000 0.000000 0.100000
vn 0.000000 0.000000 0.100000
vn 0.000000 0.000000 0.100000
vn 0.000000 0.000000 0.100000
vn -0.000000 0.000000 -0.100000
vn -0.000000 0.000000 -0.100000
vn -0.000000 0.000000 -0.100000
vn -0.000000 0.000000 -0.100000
vn -0.000000 0.000000 -0.100000
vn -0.000000 0.000000 -0.100000
vn -0.000000 0.000000 -0.100000
vn -0.000000 0.000000 -0.100000
vn -0.000000 0.000000 -0.100000
vn -0.000000 0.000000 -0.100000
vn -0.000000 0.000000 -0.100000
vn -0.000000 0.000000 -0.100000
vn -0.000000 0.000000 -0.100000
vn -0.000000 0.000000 -0.100000
vn -0.000000 0.000000 -0.100000
vn -0.000000 0.000000 -0.100000
vn -0.000000 0.000000 -0.100000
vn -0.000000 0.000000 -0.100000
vn -0.000000 0.000000 -0.100000
vn -0.000000 0.000000 -0.100000
vn -0.000000 0.000000 -0.100000
vn -0.000000 0.000000 -0.100000
vn -0.000000 0.000000 -0.100000
vn -0.000000 0.000000 -0.100000
vn -0.000000 0.000000 -0.100000
vn -0.000000 0.000000 -0.100000
vn -0.000000 0.000000 -0.100000
vn -0.000000 0.000000 -0.100000
vn -0.000000 0.000000 -0.100000
vn -0.000000 0.000000 -0.100000
vn -0.000000 0.000000 -0.100000
vn -0.000000 0.000000 -0.100000
vn -0.000000 0.000000 -0.100000
vn -0.000000 0.000000 -0.100000
vn -0.000000 0.000000 -0.100000
vn -0.000000 0.000000 -0.100000
vn -0.000000 0.000000 -0.100000
vn -0.000000 0.000000 -0.100000
vn -0.000000 0.000000 -0.100000
vn -0.000000 0.000000 -0.100000
vn -0.000000 0.000000 -0.100000
vn -0.000000 0.000000 -0.100000
vn -0.000000 0.000000 -0.100000
vn -0.000000 0.000000 -0.100000
vn -0.000000 0.000000 -0.100000
vn -0.000000 0.000000 -0.100000
usemtl Steel_-_Satin
f 1/1/1 2/2/2 4/3/3
f 4/3/3 2/2/2 3/4/4
f 5/5/5 1/6/6 6/7/7
f 6/7/7 1/6/6 4/8/8
f 7/9/9 5/10/10 8/11/11
f 8/11/11 5/10/10 6/12/12
f 9/13/13 7/14/14 10/15/15
f 10/15/15 7/14/14 8/16/16
f 48/17/17 11/18/18 47/19/19
f 47/19/19 11/18/18 12/20/20
f 47/19/19 12/20/20 46/21/21
f 46/21/21 12/20/20 13/22/22
f 46/21/21 13/22/22 45/23/23
f 45/23/23 13/22/22 14/24/24
f 45/23/23 14/24/24 44/25/25
f 44/25/25 14/24/24 15/26/26
f 44/25/25 15/26/26 43/27/27
f 43/27/27 15/26/26 16/28/28
f 43/27/27 16/28/28 42/29/29
f 42/29/29 16/28/28 17/30/30
f 42/29/29 17/30/30 41/31/31
f 41/31/31 17/30/30 18/32/32
f 41/31/31 18/32/32 40/33/33
f 40/33/33 18/32/32 19/34/34
f 40/33/33 19/34/34 39/35/35
f 39/35/35 19/34/34 20/36/36
f 39/35/35 20/36/36 38/37/37
f 38/37/37 20/36/36 21/38/38
f 38/37/37 21/38/38 37/39/39
f 37/39/39 21/38/38 22/40/40
f 37/39/39 22/40/40 36/41/41
f 36/41/41 22/40/40 23/42/42
f 36/41/41 23/42/42 35/43/43
f 35/43/43 23/42/42 24/44/44
f 35/43/43 24/44/44 34/45/45
f 34/45/45 24/44/44 25/46/46
f 34/45/45 25/46/46 33/47/47
f 33/47/47 25/46/46 26/48/48
f 33/47/47 26/48/48 32/49/49
f 32/49/49 26/48/48 27/50/50
f 32/49/49 27/50/50 31/51/51
f 31/51/51 27/50/50 28/52/52
f 31/51/51 28/52/52 30/53/53
f 30/53/53 28/52/52 29/54/54
f 30/53/53 29/54/54 10/55/55
f 10/55/55 29/54/54 9/56/56
f 49/57/57 11/58/58 50/59/59
f 50/59/59 11/58/58 48/60/60
f 3/61/61 2/62/62 92/63/63
f 92/63/63 2/62/62 51/64/64
f 92/63/63 51/64/64 91/65/65
f 91/65/65 51/64/64 52/66/66
f 91/65/65 52/66/66 90/67/67
f 90/67/67 52/66/66 53/68/68
f 90/67/67 53/68/68 89/69/69
f 89/69/69 53/68/68 54/70/70
f 89/69/69 54/70/70 88/71/71
f 88/71/71 54/70/70 55/72/72
f 88/71/71 55/72/72 87/73/73
f 87/73/73 55/72/72 56/74/74
f 87/73/73 56/74/74 86/75/75
f 86/75/75 56/74/74 57/76/76
f 86/75/75 57/76/76 85/77/77
f 85/77/77 57/76/76 58/78/78
f 85/77/77 58/78/78 84/79/79
f 84/79/79 58/78/78 59/80/80
f 84/79/79 59/80/80 83/81/81
f 83/81/81 59/80/80 60/82/82
f 83/81/81 60/82/82 82/83/83
f 82/83/83 60/82/82 61/84/84
f 82/83/83 61/84/84 81/85/85
f 81/85/85 61/84/84 62/86/86
f 81/85/85 62/86/86 80/87/87
f 80/87/87 62/86/86 63/88/88
f 80/87/87 63/88/88 79/89/89
f 79/89/89 63/88/88 64/90/90
f 79/89/89 64/90/90 78/91/91
f 78/91/91 64/90/90 65/92/92
f 78/91/91 65/92/92 77/93/93
f 77/93/93 65/92/92 66/94/94
f 77/93/93 66/94/94 76/95/95
f 76/95/95 66/94/94 67/96/96
f 76/95/95 67/96/96 75/97/97
f 75/97/97 67/96/96 68/98/98
f 75/97/97 68/98/98 74/99/99
f 74/99/99 68/98/98 69/100/100
f 74/99/99 69/100/100 73/101/101
f 73/101/101 69/100/100 70/102/102
f 73/101/101 70/102/102 72/103/103
f 72/103/103 70/102/102 71/104/104
f 72/103/103 71/104/104 50/105/105
f 50/105/105 71/104/104 49/106/106
f 92/107/107 30/108/108 3/109/109
f 3/109/109 30/108/108 10/110/110
f 3/109/109 10/110/110 6/111/111
f 6/111/111 10/110/110 8/112/112
f 30/108/108 92/107/107 31/113/113
f 31/113/113 92/107/107 91/114/114
f 31/113/113 91/114/114 32/115/115
f 32/115/115 91/114/114 90/116/116
f 32/115/115 90/116/116 33/117/117
f 33/117/117 90/116/116 89/118/118
f 33/117/117 89/118/118 34/119/119
f 34/119/119 89/118/118 88/120/120
f 34/119/119 88/120/120 35/121/121
f 35/121/121 88/120/120 87/122/122
f 35/121/121 87/122/122 86/123/123
f 35/121/121 86/123/123 36/124/124
f 36/124/124 86/123/123 85/125/125
f 36/124/124 85/125/125 37/126/126
f 37/126/126 85/125/125 84/127/127
f 37/126/126 84/127/127 38/128/128
f 38/128/128 84/127/127 83/129/129
f 38/128/128 83/129/129 82/130/130
f 38/128/128 82/130/130 39/131/131
f 39/131/131 82/130/130 81/132/132
f 39/131/131 81/132/132 80/133/133
f 39/131/131 80/133/133 40/134/134
f 40/134/134 80/133/133 79/135/135
f 40/134/134 79/135/135 41/136/136
f 41/136/136 79/135/135 78/137/137
f 41/136/136 78/137/137 42/138/138
f 42/138/138 78/137/137 77/139/139
f 42/138/138 77/139/139 76/140/140
f 42/138/138 76/140/140 43/141/141
f 43/141/141 76/140/140 75/142/142
f 43/141/141 75/142/142 44/143/143
f 44/143/143 75/142/142 74/144/144
f 44/143/143 74/144/144 45/145/145
f 45/145/145 74/144/144 73/146/146
f 45/145/145 73/146/146 46/147/147
f 46/147/147 73/146/146 72/148/148
f 46/147/147 72/148/148 47/149/149
f 47/149/149 72/148/148 50/150/150
f 47/149/149 50/150/150 48/151/151
f 6/111/111 4/152/152 3/109/109
f 11/153/153 49/154/154 12/155/155
f 12/155/155 49/154/154 71/156/156
f 12/155/155 71/156/156 13/157/157
f 13/157/157 71/156/156 70/158/158
f 13/157/157 70/158/158 14/159/159
f 14/159/159 70/158/158 69/160/160
f 14/159/159 69/160/160 15/161/161
f 15/161/161 69/160/160 68/162/162
f 15/161/161 68/162/162 16/163/163
f 16/163/163 68/162/162 67/164/164
f 16/163/163 67/164/164 17/165/165
f 17/165/165 67/164/164 66/166/166
f 17/165/165 66/166/166 65/167/167
f 17/165/165 65/167/167 18/168/168
f 18/168/168 65/167/167 64/169/169
f 18/168/168 64/169/169 19/170/170
f 19/170/170 64/169/169 63/171/171
f 19/170/170 63/171/171 20/172/172
f 20/172/172 63/171/171 62/173/173
f 20/172/172 62/173/173 61/174/174
f 20/172/172 61/174/174 21/175/175
f 21/175/175 61/174/174 60/176/176
f 21/175/175 60/176/176 59/177/177
f 21/175/175 59/177/177 22/178/178
f 22/178/178 59/177/177 58/179/179
f 22/178/178 58/179/179 23/180/180
f 23/180/180 58/179/179 57/181/181
f 23/180/180 57/181/181 24/182/182
f 24/182/182 57/181/181 56/183/183
f 24/182/182 56/183/183 55/184/184
f 24/182/182 55/184/184 25/185/185
f 25/185/185 55/184/184 54/186/186
f 25/185/185 54/186/186 26/187/187
f 26/187/187 54/186/186 53/188/188
f 26/187/187 53/188/188 27/189/189
f 27/189/189 53/188/188 52/190/190
f 27/189/189 52/190/190 28/191/191
f 28/191/191 52/190/190 51/192/192
f 28/191/191 51/192/192 29/193/193
f 29/193/193 51/192/192 2/194/194
f 29/193/193 2/194/194 9/195/195
f 9/195/195 2/194/194 5/196/196
f 9/195/195 5/196/196 7/197/197
f 2/194/194 1/198/198 5/196/196
# 92 vertices
# 198 texture params
# 198 normals
# 180 facets

# 1 groups
